<svg width="87" height="16" viewBox="0 0 87 16" fill="none" xmlns="http://www.w3.org/2000/svg">
<path d="M4.05312e-05 8C4.05312e-05 10.9455 2.38786 13.3333 5.33337 13.3333C8.27889 13.3333 10.6667 10.9455 10.6667 8C10.6667 5.05448 8.27889 2.66667 5.33337 2.66667C2.38786 2.66667 4.05312e-05 5.05448 4.05312e-05 8ZM86.0405 8.70711C86.431 8.31658 86.431 7.68342 86.0405 7.29289L79.6765 0.928932C79.286 0.538408 78.6528 0.538408 78.2623 0.928932C77.8718 1.31946 77.8718 1.95262 78.2623 2.34315L83.9192 8L78.2623 13.6569C77.8718 14.0474 77.8718 14.6805 78.2623 15.0711C78.6528 15.4616 79.286 15.4616 79.6765 15.0711L86.0405 8.70711ZM5.33337 9H85.3334V7H5.33337V9Z" fill="white"/>
</svg>
