<svg width="149" height="40" viewBox="0 0 149 40" fill="none" xmlns="http://www.w3.org/2000/svg">
<rect x="0.5" width="148" height="40" rx="4" fill="white" fill-opacity="0.2"/>
<path d="M18.5721 26V14.8H20.1561V23.44L26.7801 14.8H28.2521V26H26.6841V17.376L20.0441 26H18.5721ZM31.488 26V17.52H33.024V21.12H37.856V17.52H39.392V26H37.856V22.448H33.024V26H31.488ZM46.0746 26.096C45.2106 26.096 44.4373 25.9093 43.7546 25.536C43.0826 25.1627 42.5546 24.6507 42.1706 24C41.7866 23.3493 41.5946 22.6027 41.5946 21.76C41.5946 20.9173 41.7866 20.1707 42.1706 19.52C42.5546 18.8693 43.0826 18.3627 43.7546 18C44.4373 17.6267 45.2106 17.44 46.0746 17.44C46.8426 17.44 47.5253 17.5947 48.1226 17.904C48.7306 18.2027 49.2 18.6507 49.5306 19.248L48.3626 20C48.0853 19.584 47.744 19.28 47.3386 19.088C46.944 18.8853 46.5173 18.784 46.0586 18.784C45.504 18.784 45.008 18.9067 44.5706 19.152C44.1333 19.3973 43.7866 19.744 43.5306 20.192C43.2746 20.6293 43.1466 21.152 43.1466 21.76C43.1466 22.368 43.2746 22.896 43.5306 23.344C43.7866 23.792 44.1333 24.1387 44.5706 24.384C45.008 24.6293 45.504 24.752 46.0586 24.752C46.5173 24.752 46.944 24.656 47.3386 24.464C47.744 24.2613 48.0853 23.952 48.3626 23.536L49.5306 24.272C49.2 24.8587 48.7306 25.312 48.1226 25.632C47.5253 25.9413 46.8426 26.096 46.0746 26.096ZM53.0899 26V18.464L53.4739 18.864H49.9859V17.52H57.7299V18.864H54.2579L54.6259 18.464V26H53.0899ZM64.5005 26V24.208L64.4205 23.872V20.816C64.4205 20.1653 64.2285 19.664 63.8445 19.312C63.4712 18.9493 62.9058 18.768 62.1485 18.768C61.6472 18.768 61.1565 18.8533 60.6765 19.024C60.1965 19.184 59.7912 19.4027 59.4605 19.68L58.8205 18.528C59.2578 18.176 59.7805 17.9093 60.3885 17.728C61.0072 17.536 61.6525 17.44 62.3245 17.44C63.4872 17.44 64.3832 17.7227 65.0125 18.288C65.6418 18.8533 65.9565 19.7173 65.9565 20.88V26H64.5005ZM61.7165 26.096C61.0872 26.096 60.5325 25.9893 60.0525 25.776C59.5832 25.5627 59.2205 25.2693 58.9645 24.896C58.7085 24.512 58.5805 24.08 58.5805 23.6C58.5805 23.1413 58.6872 22.7253 58.9005 22.352C59.1245 21.9787 59.4818 21.68 59.9725 21.456C60.4738 21.232 61.1458 21.12 61.9885 21.12H64.6765V22.224H62.0525C61.2845 22.224 60.7672 22.352 60.5005 22.608C60.2338 22.864 60.1005 23.1733 60.1005 23.536C60.1005 23.952 60.2658 24.288 60.5965 24.544C60.9272 24.7893 61.3858 24.912 61.9725 24.912C62.5485 24.912 63.0498 24.784 63.4765 24.528C63.9138 24.272 64.2285 23.8987 64.4205 23.408L64.7245 24.464C64.5218 24.9653 64.1645 25.3653 63.6525 25.664C63.1405 25.952 62.4952 26.096 61.7165 26.096ZM68.7224 26V17.52H74.9624V18.864H69.8904L70.2584 18.512V26H68.7224ZM81.0309 26.096C80.3269 26.096 79.6815 25.936 79.0949 25.616C78.5189 25.2853 78.0549 24.8 77.7029 24.16C77.3615 23.52 77.1909 22.72 77.1909 21.76C77.1909 20.8 77.3562 20 77.6869 19.36C78.0282 18.72 78.4869 18.24 79.0629 17.92C79.6495 17.6 80.3055 17.44 81.0309 17.44C81.8629 17.44 82.5989 17.6213 83.2389 17.984C83.8789 18.3467 84.3855 18.8533 84.7589 19.504C85.1322 20.144 85.3189 20.896 85.3189 21.76C85.3189 22.624 85.1322 23.3813 84.7589 24.032C84.3855 24.6827 83.8789 25.1893 83.2389 25.552C82.5989 25.9147 81.8629 26.096 81.0309 26.096ZM76.5349 29.104V17.52H78.0069V19.808L77.9109 21.776L78.0709 23.744V29.104H76.5349ZM80.9029 24.752C81.4469 24.752 81.9322 24.6293 82.3589 24.384C82.7962 24.1387 83.1375 23.792 83.3829 23.344C83.6389 22.8853 83.7669 22.3573 83.7669 21.76C83.7669 21.152 83.6389 20.6293 83.3829 20.192C83.1375 19.744 82.7962 19.3973 82.3589 19.152C81.9322 18.9067 81.4469 18.784 80.9029 18.784C80.3695 18.784 79.8842 18.9067 79.4469 19.152C79.0202 19.3973 78.6789 19.744 78.4229 20.192C78.1775 20.6293 78.0549 21.152 78.0549 21.76C78.0549 22.3573 78.1775 22.8853 78.4229 23.344C78.6789 23.792 79.0202 24.1387 79.4469 24.384C79.8842 24.6293 80.3695 24.752 80.9029 24.752ZM92.6724 26V24.208L92.5924 23.872V20.816C92.5924 20.1653 92.4004 19.664 92.0164 19.312C91.643 18.9493 91.0777 18.768 90.3204 18.768C89.819 18.768 89.3284 18.8533 88.8484 19.024C88.3684 19.184 87.963 19.4027 87.6324 19.68L86.9924 18.528C87.4297 18.176 87.9524 17.9093 88.5604 17.728C89.179 17.536 89.8244 17.44 90.4964 17.44C91.659 17.44 92.555 17.7227 93.1844 18.288C93.8137 18.8533 94.1284 19.7173 94.1284 20.88V26H92.6724ZM89.8884 26.096C89.259 26.096 88.7044 25.9893 88.2244 25.776C87.755 25.5627 87.3924 25.2693 87.1364 24.896C86.8804 24.512 86.7524 24.08 86.7524 23.6C86.7524 23.1413 86.859 22.7253 87.0724 22.352C87.2964 21.9787 87.6537 21.68 88.1444 21.456C88.6457 21.232 89.3177 21.12 90.1604 21.12H92.8484V22.224H90.2244C89.4564 22.224 88.939 22.352 88.6724 22.608C88.4057 22.864 88.2724 23.1733 88.2724 23.536C88.2724 23.952 88.4377 24.288 88.7684 24.544C89.099 24.7893 89.5577 24.912 90.1444 24.912C90.7204 24.912 91.2217 24.784 91.6484 24.528C92.0857 24.272 92.4004 23.8987 92.5924 23.408L92.8964 24.464C92.6937 24.9653 92.3364 25.3653 91.8244 25.664C91.3124 25.952 90.667 26.096 89.8884 26.096ZM96.8943 26V17.52H98.4783L102.126 23.792H101.486L105.23 17.52H106.67V26H105.278V19.248L105.534 19.392L102.11 25.04H101.438L97.9983 19.28L98.3023 19.216V26H96.8943Z" fill="white"/>
<path fill-rule="evenodd" clip-rule="evenodd" d="M128.5 26C131.814 26 134.5 23.3137 134.5 20C134.5 16.6863 131.814 14 128.5 14C125.186 14 122.5 16.6863 122.5 20C122.5 23.3137 125.186 26 128.5 26ZM128.5 24C130.709 24 132.5 22.2091 132.5 20C132.5 17.7909 130.709 16 128.5 16C126.291 16 124.5 17.7909 124.5 20C124.5 22.2091 126.291 24 128.5 24Z" fill="white"/>
<path d="M134.5 13C133.948 13 133.5 13.4477 133.5 14C133.5 14.5523 133.948 15 134.5 15C135.052 15 135.5 14.5523 135.5 14C135.5 13.4477 135.052 13 134.5 13Z" fill="white"/>
<path fill-rule="evenodd" clip-rule="evenodd" d="M118.154 12.2761C117.5 13.5595 117.5 15.2397 117.5 18.6V21.4C117.5 24.7603 117.5 26.4405 118.154 27.7239C118.729 28.8529 119.647 29.7708 120.776 30.346C122.06 31 123.74 31 127.1 31H129.9C133.26 31 134.941 31 136.224 30.346C137.353 29.7708 138.271 28.8529 138.846 27.7239C139.5 26.4405 139.5 24.7603 139.5 21.4V18.6C139.5 15.2397 139.5 13.5595 138.846 12.2761C138.271 11.1471 137.353 10.2292 136.224 9.65396C134.941 9 133.26 9 129.9 9H127.1C123.74 9 122.06 9 120.776 9.65396C119.647 10.2292 118.729 11.1471 118.154 12.2761ZM129.9 11H127.1C125.387 11 124.222 11.0016 123.322 11.0751C122.445 11.1467 121.997 11.2766 121.684 11.436C120.931 11.8195 120.319 12.4314 119.936 13.184C119.777 13.4968 119.647 13.9452 119.575 14.8221C119.502 15.7222 119.5 16.8868 119.5 18.6V21.4C119.5 23.1132 119.502 24.2777 119.575 25.1779C119.647 26.0548 119.777 26.5032 119.936 26.816C120.319 27.5686 120.931 28.1805 121.684 28.564C121.997 28.7234 122.445 28.8533 123.322 28.9249C124.222 28.9984 125.387 29 127.1 29H129.9C131.613 29 132.778 28.9984 133.678 28.9249C134.555 28.8533 135.003 28.7234 135.316 28.564C136.069 28.1805 136.681 27.5686 137.064 26.816C137.223 26.5032 137.353 26.0548 137.425 25.1779C137.498 24.2777 137.5 23.1132 137.5 21.4V18.6C137.5 16.8868 137.498 15.7222 137.425 14.8221C137.353 13.9452 137.223 13.4968 137.064 13.184C136.681 12.4314 136.069 11.8195 135.316 11.436C135.003 11.2766 134.555 11.1467 133.678 11.0751C132.778 11.0016 131.613 11 129.9 11Z" fill="white"/>
</svg>
