<svg width="136" height="40" viewBox="0 0 136 40" fill="none" xmlns="http://www.w3.org/2000/svg">
<rect width="136" height="40" rx="4" fill="#363B3F"/>
<path opacity="0.7" d="M20.0789 26V15.776L20.4789 16.192H16.2549V14.8H25.4869V16.192H21.2629L21.6469 15.776V26H20.0789ZM30.0765 26.096C29.1698 26.096 28.3698 25.9093 27.6765 25.536C26.9938 25.1627 26.4605 24.6507 26.0765 24C25.7032 23.3493 25.5165 22.6027 25.5165 21.76C25.5165 20.9173 25.6978 20.1707 26.0605 19.52C26.4338 18.8693 26.9405 18.3627 27.5805 18C28.2312 17.6267 28.9618 17.44 29.7725 17.44C30.5938 17.44 31.3192 17.6213 31.9485 17.984C32.5778 18.3467 33.0685 18.8587 33.4205 19.52C33.7832 20.1707 33.9645 20.9333 33.9645 21.808C33.9645 21.872 33.9592 21.9467 33.9485 22.032C33.9485 22.1173 33.9432 22.1973 33.9325 22.272H26.7165V21.168H33.1325L32.5085 21.552C32.5192 21.008 32.4072 20.5227 32.1725 20.096C31.9378 19.6693 31.6125 19.3387 31.1965 19.104C30.7912 18.8587 30.3165 18.736 29.7725 18.736C29.2392 18.736 28.7645 18.8587 28.3485 19.104C27.9325 19.3387 27.6072 19.6747 27.3725 20.112C27.1378 20.5387 27.0205 21.0293 27.0205 21.584V21.84C27.0205 22.4053 27.1485 22.912 27.4045 23.36C27.6712 23.7973 28.0392 24.1387 28.5085 24.384C28.9778 24.6293 29.5165 24.752 30.1245 24.752C30.6258 24.752 31.0792 24.6667 31.4845 24.496C31.9005 24.3253 32.2632 24.0693 32.5725 23.728L33.4205 24.72C33.0365 25.168 32.5565 25.5093 31.9805 25.744C31.4152 25.9787 30.7805 26.096 30.0765 26.096ZM34.7988 25.984L34.8948 24.688C34.9694 24.6987 35.0388 24.7093 35.1028 24.72C35.1668 24.7307 35.2254 24.736 35.2788 24.736C35.6201 24.736 35.8868 24.6187 36.0788 24.384C36.2814 24.1493 36.4308 23.84 36.5268 23.456C36.6228 23.0613 36.6921 22.6187 36.7348 22.128C36.7774 21.6373 36.8094 21.1467 36.8307 20.656L36.9748 17.52H43.4868V26H41.9508V18.416L42.3188 18.864H37.9668L38.3188 18.4L38.2068 20.752C38.1748 21.4987 38.1161 22.1973 38.0308 22.848C37.9454 23.4987 37.8121 24.0693 37.6308 24.56C37.4601 25.0507 37.2201 25.4347 36.9108 25.712C36.6121 25.9893 36.2228 26.128 35.7428 26.128C35.6041 26.128 35.4548 26.112 35.2948 26.08C35.1454 26.0587 34.9801 26.0267 34.7988 25.984ZM50.2328 26.096C49.3261 26.096 48.5261 25.9093 47.8328 25.536C47.1501 25.1627 46.6168 24.6507 46.2328 24C45.8594 23.3493 45.6728 22.6027 45.6728 21.76C45.6728 20.9173 45.8541 20.1707 46.2168 19.52C46.5901 18.8693 47.0968 18.3627 47.7368 18C48.3874 17.6267 49.1181 17.44 49.9288 17.44C50.7501 17.44 51.4754 17.6213 52.1048 17.984C52.7341 18.3467 53.2248 18.8587 53.5768 19.52C53.9394 20.1707 54.1208 20.9333 54.1208 21.808C54.1208 21.872 54.1154 21.9467 54.1048 22.032C54.1048 22.1173 54.0994 22.1973 54.0888 22.272H46.8728V21.168H53.2888L52.6648 21.552C52.6754 21.008 52.5634 20.5227 52.3288 20.096C52.0941 19.6693 51.7688 19.3387 51.3528 19.104C50.9474 18.8587 50.4728 18.736 49.9288 18.736C49.3954 18.736 48.9208 18.8587 48.5048 19.104C48.0888 19.3387 47.7634 19.6747 47.5288 20.112C47.2941 20.5387 47.1768 21.0293 47.1768 21.584V21.84C47.1768 22.4053 47.3048 22.912 47.5608 23.36C47.8274 23.7973 48.1954 24.1387 48.6648 24.384C49.1341 24.6293 49.6728 24.752 50.2808 24.752C50.7821 24.752 51.2354 24.6667 51.6408 24.496C52.0568 24.3253 52.4194 24.0693 52.7288 23.728L53.5768 24.72C53.1928 25.168 52.7128 25.5093 52.1368 25.744C51.5714 25.9787 50.9368 26.096 50.2328 26.096ZM56.5036 26V17.52H62.7436V18.864H57.6716L58.0396 18.512V26H56.5036ZM68.8121 26.096C68.1081 26.096 67.4628 25.936 66.8761 25.616C66.3001 25.2853 65.8361 24.8 65.4841 24.16C65.1428 23.52 64.9721 22.72 64.9721 21.76C64.9721 20.8 65.1375 20 65.4681 19.36C65.8095 18.72 66.2681 18.24 66.8441 17.92C67.4308 17.6 68.0868 17.44 68.8121 17.44C69.6441 17.44 70.3801 17.6213 71.0201 17.984C71.6601 18.3467 72.1668 18.8533 72.5401 19.504C72.9135 20.144 73.1001 20.896 73.1001 21.76C73.1001 22.624 72.9135 23.3813 72.5401 24.032C72.1668 24.6827 71.6601 25.1893 71.0201 25.552C70.3801 25.9147 69.6441 26.096 68.8121 26.096ZM64.3161 29.104V17.52H65.7881V19.808L65.6921 21.776L65.8521 23.744V29.104H64.3161ZM68.6841 24.752C69.2281 24.752 69.7135 24.6293 70.1401 24.384C70.5775 24.1387 70.9188 23.792 71.1641 23.344C71.4201 22.8853 71.5481 22.3573 71.5481 21.76C71.5481 21.152 71.4201 20.6293 71.1641 20.192C70.9188 19.744 70.5775 19.3973 70.1401 19.152C69.7135 18.9067 69.2281 18.784 68.6841 18.784C68.1508 18.784 67.6655 18.9067 67.2281 19.152C66.8015 19.3973 66.4601 19.744 66.2041 20.192C65.9588 20.6293 65.8361 21.152 65.8361 21.76C65.8361 22.3573 65.9588 22.8853 66.2041 23.344C66.4601 23.792 66.8015 24.1387 67.2281 24.384C67.6655 24.6293 68.1508 24.752 68.6841 24.752ZM80.4536 26V24.208L80.3736 23.872V20.816C80.3736 20.1653 80.1816 19.664 79.7976 19.312C79.4243 18.9493 78.859 18.768 78.1016 18.768C77.6003 18.768 77.1096 18.8533 76.6296 19.024C76.1496 19.184 75.7443 19.4027 75.4136 19.68L74.7736 18.528C75.211 18.176 75.7336 17.9093 76.3416 17.728C76.9603 17.536 77.6056 17.44 78.2776 17.44C79.4403 17.44 80.3363 17.7227 80.9656 18.288C81.595 18.8533 81.9096 19.7173 81.9096 20.88V26H80.4536ZM77.6696 26.096C77.0403 26.096 76.4856 25.9893 76.0056 25.776C75.5363 25.5627 75.1736 25.2693 74.9176 24.896C74.6616 24.512 74.5336 24.08 74.5336 23.6C74.5336 23.1413 74.6403 22.7253 74.8536 22.352C75.0776 21.9787 75.435 21.68 75.9256 21.456C76.427 21.232 77.099 21.12 77.9416 21.12H80.6296V22.224H78.0056C77.2376 22.224 76.7203 22.352 76.4536 22.608C76.187 22.864 76.0536 23.1733 76.0536 23.536C76.0536 23.952 76.219 24.288 76.5496 24.544C76.8803 24.7893 77.339 24.912 77.9256 24.912C78.5016 24.912 79.003 24.784 79.4296 24.528C79.867 24.272 80.1816 23.8987 80.3736 23.408L80.6776 24.464C80.475 24.9653 80.1176 25.3653 79.6056 25.664C79.0936 25.952 78.4483 26.096 77.6696 26.096ZM84.6755 26V17.52H86.2595L89.9075 23.792H89.2675L93.0115 17.52H94.4515V26H93.0595V19.248L93.3155 19.392L89.8915 25.04H89.2195L85.7795 19.28L86.0835 19.216V26H84.6755Z" fill="white"/>
<path d="M124.52 12.3466L106.18 19.3006C105.442 19.6244 105.193 20.273 106.002 20.6249L110.707 22.0951L122.082 15.1821C122.703 14.7481 123.339 14.8638 122.792 15.3412L113.022 24.0398L112.715 27.721C112.999 28.2894 113.52 28.2921 113.852 28.0096L116.555 25.4946L121.184 28.9033C122.26 29.5293 122.845 29.1253 123.076 27.9781L126.112 13.8399C126.428 12.4277 125.89 11.8055 124.52 12.3466Z" fill="white"/>
</svg>
