<svg width="146" height="28" viewBox="0 0 146 28" fill="none" xmlns="http://www.w3.org/2000/svg">
<path fill-rule="evenodd" clip-rule="evenodd" d="M134.46 5.24421C135.016 4.88782 135.385 4.26694 135.385 3.56065C135.385 2.45494 134.482 1.55859 133.369 1.55859C132.255 1.55859 131.352 2.45494 131.352 3.56065C131.352 3.80964 131.398 4.04802 131.482 4.26793L128.165 5.60665C127.877 5.21688 127.412 4.96388 126.887 4.96388C126.012 4.96388 125.303 5.66816 125.303 6.53692C125.303 7.1194 125.622 7.62793 126.096 7.89984L124.995 21.4593C124.028 21.6067 123.287 22.4365 123.287 23.4381C123.287 24.5438 124.19 25.4402 125.303 25.4402C126.23 25.4402 127.011 24.8191 127.247 23.9732L141.985 25.737C142.269 26.1615 142.755 26.4413 143.306 26.4413C144.181 26.4413 144.89 25.737 144.89 24.8683C144.89 23.9995 144.181 23.2952 143.306 23.2952C143.146 23.2952 142.991 23.3189 142.845 23.3629L134.46 5.24421ZM141.723 24.7959C141.739 24.4462 141.87 24.1262 142.08 23.8724L133.6 5.54961C133.524 5.55825 133.447 5.5627 133.369 5.5627C132.841 5.5627 132.361 5.36179 132.002 5.03287L128.47 6.45868C128.471 6.4846 128.472 6.51069 128.472 6.53692C128.472 7.37091 127.818 8.05331 126.992 8.10661L125.902 21.5259C126.608 21.7435 127.147 22.3356 127.285 23.0681L141.723 24.7959ZM7.94648 20.6735C6.94387 20.6735 6.00935 20.5138 5.1429 20.1942C4.28883 19.8624 3.54616 19.3953 2.91489 18.7931C2.28362 18.1909 1.78851 17.4842 1.42955 16.673C1.08297 15.8619 0.909668 14.9708 0.909668 13.9999C0.909668 13.029 1.08297 12.1379 1.42955 11.3268C1.78851 10.5156 2.28362 9.8089 2.91489 9.20667C3.55854 8.60444 4.30739 8.14356 5.16146 7.82401C6.01553 7.49217 6.95005 7.32625 7.96504 7.32625C9.09142 7.32625 10.1064 7.5229 11.01 7.91619C11.926 8.29719 12.6934 8.86254 13.3123 9.61225L11.3813 11.3821C10.9357 10.8782 10.4406 10.5033 9.896 10.2575C9.35137 9.9994 8.75723 9.87035 8.11358 9.87035C7.50706 9.87035 6.95006 9.96867 6.44257 10.1653C5.93508 10.362 5.49566 10.6446 5.12433 11.0133C4.75299 11.3821 4.46211 11.8184 4.25169 12.3223C4.05364 12.8262 3.95463 13.3854 3.95463 13.9999C3.95463 14.6144 4.05364 15.1736 4.25169 15.6775C4.46211 16.1814 4.75299 16.6177 5.12433 16.9864C5.49566 17.3552 5.93508 17.6378 6.44257 17.8345C6.95006 18.0311 7.50706 18.1294 8.11358 18.1294C8.75723 18.1294 9.35137 18.0065 9.896 17.7607C10.4406 17.5026 10.9357 17.1155 11.3813 16.5993L13.3123 18.3691C12.6934 19.1188 11.926 19.6903 11.01 20.0836C10.1064 20.4769 9.08524 20.6735 7.94648 20.6735ZM18.5251 20.1758C19.4039 20.5076 20.357 20.6735 21.3844 20.6735C22.3993 20.6735 23.3339 20.5076 24.1879 20.1758C25.0544 19.8439 25.8032 19.3831 26.4345 18.7931C27.0782 18.1909 27.5795 17.4842 27.9384 16.673C28.2974 15.8496 28.4769 14.9585 28.4769 13.9999C28.4769 13.029 28.2974 12.1441 27.9384 11.3452C27.5795 10.534 27.0782 9.82733 26.4345 9.22511C25.8032 8.62288 25.0544 8.15585 24.1879 7.82401C23.3339 7.49217 22.3932 7.32625 21.3658 7.32625C20.3508 7.32625 19.4101 7.49217 18.5437 7.82401C17.6772 8.15585 16.9222 8.62288 16.2785 9.22511C15.6349 9.82733 15.1335 10.534 14.7746 11.3452C14.428 12.1563 14.2547 13.0413 14.2547 13.9999C14.2547 14.9585 14.428 15.8434 14.7746 16.6546C15.1335 17.4658 15.6287 18.1725 16.2599 18.7747C16.9036 19.3769 17.6586 19.8439 18.5251 20.1758ZM22.9625 17.8345C22.4798 18.0311 21.9476 18.1294 21.3658 18.1294C20.784 18.1294 20.2456 18.0311 19.7505 17.8345C19.2554 17.6378 18.8221 17.3552 18.4508 16.9864C18.0918 16.6177 17.8072 16.1814 17.5967 15.6775C17.3987 15.1613 17.2997 14.6021 17.2997 13.9999C17.2997 13.3854 17.3987 12.8262 17.5967 12.3223C17.8072 11.8184 18.0981 11.3821 18.4694 11.0133C18.8407 10.6446 19.2677 10.362 19.7505 10.1653C20.2456 9.96867 20.784 9.87035 21.3658 9.87035C21.9476 9.87035 22.486 9.96867 22.9811 10.1653C23.4762 10.362 23.9032 10.6446 24.2622 11.0133C24.6335 11.3821 24.9182 11.8184 25.1163 12.3223C25.3267 12.8262 25.4319 13.3854 25.4319 13.9999C25.4319 14.6144 25.3267 15.1736 25.1163 15.6775C24.9182 16.1814 24.6335 16.6177 24.2622 16.9864C23.8909 17.3552 23.4576 17.6378 22.9625 17.8345ZM35.0077 20.6735C33.968 20.6735 32.9716 20.5383 32.0185 20.268C31.0654 19.9853 30.298 19.6227 29.7162 19.1803L30.7374 16.9311C31.2944 17.3244 31.9504 17.6501 32.7055 17.9082C33.4729 18.154 34.2465 18.2769 35.0263 18.2769C35.6204 18.2769 36.097 18.2216 36.456 18.111C36.8273 17.9881 37.0996 17.8222 37.2729 17.6133C37.4462 17.4043 37.5328 17.1647 37.5328 16.8943C37.5328 16.5501 37.3967 16.2798 37.1244 16.0831C36.8521 15.8742 36.4931 15.7083 36.0475 15.5853C35.6019 15.4502 35.1068 15.3272 34.5621 15.2166C34.0299 15.0937 33.4915 14.9463 32.9468 14.7742C32.4146 14.6021 31.9257 14.3809 31.4801 14.1105C31.0345 13.8401 30.6693 13.4837 30.3846 13.0413C30.1123 12.5988 29.9762 12.0334 29.9762 11.3452C29.9762 10.6078 30.1742 9.93794 30.5703 9.33572C30.9788 8.7212 31.5853 8.23573 32.3899 7.87931C33.2068 7.51061 34.2279 7.32625 35.4534 7.32625C36.2703 7.32625 37.0748 7.42457 37.867 7.62122C38.6592 7.80557 39.3586 8.08825 39.9651 8.46925L39.0368 10.7368C38.4302 10.3927 37.8237 10.1407 37.2172 9.98096C36.6107 9.8089 36.0166 9.72286 35.4348 9.72286C34.853 9.72286 34.3765 9.79046 34.0052 9.92565C33.6338 10.0608 33.3677 10.2391 33.2068 10.4603C33.0459 10.6692 32.9654 10.915 32.9654 11.1977C32.9654 11.5295 33.1016 11.7999 33.3739 12.0089C33.6462 12.2055 34.0052 12.3653 34.4508 12.4882C34.8964 12.6111 35.3853 12.734 35.9175 12.8569C36.4621 12.9798 37.0006 13.1211 37.5328 13.2809C38.0774 13.4407 38.5726 13.6558 39.0182 13.9262C39.4638 14.1965 39.8227 14.553 40.095 14.9954C40.3797 15.4379 40.5221 15.9971 40.5221 16.673C40.5221 17.3982 40.3178 18.0618 39.9094 18.6641C39.5009 19.2663 38.8882 19.7518 38.0713 20.1205C37.2667 20.4892 36.2455 20.6735 35.0077 20.6735ZM66.6225 20.6735C65.5951 20.6735 64.642 20.5076 63.7632 20.1758C62.8967 19.8439 62.1417 19.3769 61.4981 18.7747C60.8668 18.1725 60.3717 17.4658 60.0127 16.6546C59.6661 15.8434 59.4928 14.9585 59.4928 13.9999C59.4928 13.0413 59.6661 12.1563 60.0127 11.3452C60.3717 10.534 60.873 9.82733 61.5166 9.22511C62.1603 8.62288 62.9153 8.15585 63.7818 7.82401C64.6482 7.49217 65.589 7.32625 66.6039 7.32625C67.6313 7.32625 68.572 7.49217 69.4261 7.82401C70.2925 8.15585 71.0414 8.62288 71.6726 9.22511C72.3163 9.82733 72.8176 10.534 73.1766 11.3452C73.5355 12.1441 73.715 13.029 73.715 13.9999C73.715 14.9585 73.5355 15.8496 73.1766 16.673C72.8176 17.4842 72.3163 18.1909 71.6726 18.7931C71.0414 19.3831 70.2925 19.8439 69.4261 20.1758C68.572 20.5076 67.6375 20.6735 66.6225 20.6735ZM66.6039 18.1294C67.1857 18.1294 67.7179 18.0311 68.2007 17.8345C68.6958 17.6378 69.129 17.3552 69.5003 16.9864C69.8717 16.6177 70.1564 16.1814 70.3544 15.6775C70.5648 15.1736 70.6701 14.6144 70.6701 13.9999C70.6701 13.3854 70.5648 12.8262 70.3544 12.3223C70.1564 11.8184 69.8717 11.3821 69.5003 11.0133C69.1414 10.6446 68.7144 10.362 68.2192 10.1653C67.7241 9.96867 67.1857 9.87035 66.6039 9.87035C66.0222 9.87035 65.4837 9.96867 64.9886 10.1653C64.5059 10.362 64.0789 10.6446 63.7075 11.0133C63.3362 11.3821 63.0453 11.8184 62.8349 12.3223C62.6368 12.8262 62.5378 13.3854 62.5378 13.9999C62.5378 14.6021 62.6368 15.1613 62.8349 15.6775C63.0453 16.1814 63.33 16.6177 63.6889 16.9864C64.0603 17.3552 64.4935 17.6378 64.9886 17.8345C65.4837 18.0311 66.0222 18.1294 66.6039 18.1294ZM75.9755 7.54765V20.4525H78.7977V12.8738L82.6038 19.0883H83.9592L87.7858 12.7069L87.8025 20.4525H90.6247L90.5875 7.54765H88.1181L83.3316 15.5607L78.4634 7.54765H75.9755ZM92.0007 20.4525L97.7935 7.54765H100.764L106.576 20.4525H103.419L102.266 17.6872H96.2409L95.0827 20.4525H92.0007ZM99.2591 10.4807L101.32 15.4196H97.1906L99.2591 10.4807ZM107.924 20.4525V7.54765H113.549C114.713 7.54765 115.716 7.73815 116.557 8.11915C117.399 8.48786 118.049 9.02249 118.507 9.72303C118.965 10.4236 119.194 11.2593 119.194 12.2303C119.194 13.1889 118.965 14.0185 118.507 14.7191C118.049 15.4196 117.399 15.9604 116.557 16.3414C115.716 16.7101 114.713 16.8944 113.549 16.8944H110.931V20.4525H107.924ZM113.382 14.461H110.931V9.98113H113.382C114.311 9.98113 115.004 10.1778 115.462 10.5711C115.92 10.9644 116.149 11.5174 116.149 12.2303C116.149 12.9308 115.92 13.4777 115.462 13.871C115.004 14.2643 114.311 14.461 113.382 14.461ZM42.5771 7.54765V20.4525H45.3993V12.8738L49.2055 19.0883H50.5608L54.3874 12.7069L54.4041 20.4525H57.2263L57.1892 7.54765H54.7198L49.9333 15.5607L45.0651 7.54765H42.5771Z" fill="white"/>
</svg>
