<svg width="31" height="37" viewBox="0 0 31 37" fill="none" xmlns="http://www.w3.org/2000/svg">
<path fill-rule="evenodd" clip-rule="evenodd" d="M16.01 6.20071C16.7992 5.69158 17.3217 4.80462 17.3217 3.79562C17.3217 2.21605 16.0412 0.935547 14.4616 0.935547C12.8821 0.935547 11.6016 2.21605 11.6016 3.79562C11.6016 4.15133 11.6665 4.49187 11.7852 4.80603L7.08055 6.71849C6.67155 6.16167 6.0121 5.80025 5.26824 5.80025C4.02715 5.80025 3.02104 6.80635 3.02104 8.04745C3.02104 8.87956 3.47331 9.60603 4.14542 9.99447L2.58397 29.3652C1.21202 29.5757 0.161285 30.7612 0.161285 32.192C0.161285 33.7716 1.44178 35.0521 3.02135 35.0521C4.33617 35.0521 5.44376 34.1649 5.77813 32.9565L26.684 35.4761C27.0864 36.0825 27.7754 36.4823 28.5577 36.4823C29.7988 36.4823 30.8049 35.4762 30.8049 34.2351C30.8049 32.994 29.7988 31.9879 28.5577 31.9879C28.3302 31.9879 28.1106 32.0217 27.9037 32.0845L16.01 6.20071ZM26.3128 34.1317C26.3354 33.6321 26.5212 33.175 26.8181 32.8124L14.7905 6.63699C14.6826 6.64935 14.5728 6.65569 14.4616 6.65569C13.7138 6.65569 13.033 6.36868 12.5234 5.89879L7.51271 7.93567C7.51453 7.9727 7.51543 8.00997 7.51543 8.04745C7.51543 9.23885 6.58829 10.2137 5.41614 10.2899L3.87083 29.4602C4.87174 29.7711 5.63712 30.6169 5.83267 31.6634L26.3128 34.1317Z" fill="white"/>
</svg>
